# xmcd
#
# Track frame offsets:
#	150
#	11895
#	23123
#	35588
#	51061
#	64351
#	74034
#	84677
#	94742
#	105595
#
# Disc length: 1528 seconds
#
# Revision: 0
# Processed by: cddbd v1.5.2PL0 Copyright (c) Steve Scherf et al.
# Submitted via: audiograbber 1.83.01
#
DISCID=8a05f60a
DTITLE=Porter Wagoner - The Farmer
DYEAR=1973
DGENRE=Country
TTITLE0=Conmersation
TTITLE1=The Farmer
TTITLE2=Daddy's Working Boots
TTITLE3=My Dad
TTITLE4=Moments Of Meditation
TTITLE5=Wake Up, Jacob
TTITLE6=The Country Farm
TTITLE7=The Sun Don't Shine (On The Same Dog Every Day)
TTITLE8=Country Bo-Bo
TTITLE9=Bones
EXTD=This is from one of my LP's that I have made into a CD
EXTT0=
EXTT1=
EXTT2=
EXTT3=
EXTT4=
EXTT5=
EXTT6=
EXTT7=
EXTT8=
EXTT9=
PLAYORDER=
